<svg id="Layer_1" enable-background="new 0 0 512 512" height="512" viewBox="0 0 512 512" width="512" xmlns="http://www.w3.org/2000/svg"><g><g><g><g><g><g id="XMLID_1976_"><g id="XMLID_1977_"><g id="XMLID_1978_"><g id="XMLID_1979_"><g id="XMLID_1980_"><g id="XMLID_1981_"><g id="XMLID_1982_"><g id="XMLID_1983_"><g id="XMLID_1984_"><g id="XMLID_1985_"><g id="XMLID_1986_"><g id="XMLID_1987_"><g id="XMLID_1988_"><g id="XMLID_1989_"><g id="XMLID_1990_"><circle cx="256" cy="256" fill="#e8e8e8" r="256"/></g></g></g></g></g></g></g></g></g></g></g></g></g></g></g></g></g></g></g><path d="m512 256c0-25.595-3.774-50.305-10.765-73.624l-85.168-85.168-123.695 51.688-101.903-.585-42.969-44.063-83.423 35.517 75.067 73.573 7.282 183.226 33.414 32.673c1.314 9.109 3.903 13.884 3.903 13.884l68.835 68.835c1.141.015 2.278.043 3.422.043 141.385.001 256-114.614 256-255.999z" fill="#ccc"/><g><path d="m149.46 143.608h148.384v126.26h-148.384z" fill="#57e5a8"/><path d="m287.083 97.207h128.983v139.513h-128.983z" fill="#ffa015"/><path d="m398.438 378.806h-247.144l-15.379-189.16h310.008z" fill="#6c2ac4"/><path d="m445.921 189.646-43.027 171.397-.02.081-4.435 17.677h-111.352v-189.155z" fill="#3c1784"/><g><path d="m395.18 396.564h-248.754l-30.477-256.799h-51.872v-35.517h83.423l30.477 242.082h228.613z" fill="#ff6cce"/></g><g><path d="m406.59 346.33-11.408 50.23h-108.095v-50.23z" fill="#e020aa"/></g><g><circle cx="206.952" cy="415.15" fill="#474d54" r="36.348"/><circle cx="344.267" cy="415.15" fill="#282e33" r="36.348"/></g></g></g></svg>